<?xml version="1.0" encoding="utf-8"?>
<!-- Generator: Adobe Illustrator 18.1.1, SVG Export Plug-In . SVG Version: 6.00 Build 0)  -->
<svg version="1.1" id="Layer_1" xmlns="http://www.w3.org/2000/svg" xmlns:xlink="http://www.w3.org/1999/xlink" x="0px" y="0px"
	 viewBox="0 0 500 500" enable-background="new 0 0 500 500" xml:space="preserve">
<g id="Layer_2">
	<circle fill="#1a1a1a" cx="250" cy="250" r="250"/>
</g>
<g id="Layer_1_1_">

	<line id="bar" fill="none" stroke="#fff" stroke-width="3" stroke-miterlimit="10" x1="185.4" y1="310.4" x2="316.4" y2="310.4"/>
	<g id="rightleg">
		<path fill="none" stroke="#fff" stroke-width="3" stroke-miterlimit="10" d="M264.8,217.7c-0.5,0.7-0.6,1.9-0.2,2.7l67.5,119.2
			c0.4,0.8,1.2,2,1.7,2.7l36.9,54c0.5,0.7,0.6,0.7,0.3-0.1l-25.7-59.6c-0.3-0.8-1-2.1-1.4-2.8l-71.5-123.9c-0.4-0.8-1.2-0.8-1.7-0.1
			L264.8,217.7z"/>
	</g>
	<g id="leftleg">
		<path fill="none" stroke="#fff" stroke-width="3" stroke-miterlimit="10" d="M235.5,217.4c0.5,0.7,0.6,1.9,0.2,2.7l-67.9,119.5
			c-0.4,0.8-1.2,2-1.7,2.7l-36.9,54c-0.5,0.7-0.6,0.7-0.3-0.1l25.7-59.6c0.3-0.8,1-2.1,1.4-2.8l71.9-124.3c0.4-0.8,1.2-0.8,1.7-0.1
			L235.5,217.4z"/>
	</g>

	<rect id="quad" x="242.7" y="127.6" fill="none" stroke="#c392ff" stroke-width="3" stroke-miterlimit="10" width="15.1" height="38.4"/>
	<g id="penta">
		<path fill="none" stroke="#c392ff" stroke-width="3" stroke-miterlimit="10" d="M274.8,166.2c0.7,0,1.3,0.6,1.3,1.3v33.7
			c0,0.7-0.3,1.7-0.8,2.3L251,236.6c-0.4,0.6-1.1,0.6-1.5,0l-24.3-33.1c-0.4-0.6-0.8-1.6-0.8-2.3v-33.7c0-0.7,0.6-1.3,1.3-1.3H274.8
			z"/>
	</g>

	<ellipse id="circle" fill="none" stroke="#fff" stroke-width="3" stroke-miterlimit="10" cx="250.3" cy="190.7" rx="11" ry="10.3"/>
	<text id="leftbrace" transform="matrix(1 0 0 1 29.9999 339.8355)" font-family="'RobotoMono-Light'" font-size="261.34">{</text>
	<text id="rightbrace" transform="matrix(-1 0 0 1 470 339.8355)" font-family="'RobotoMono-Light'" font-size="261.34">{</text>
</g>
</svg>
