<?xml version="1.0" encoding="utf-8"?>
<!-- Generator: Adobe Illustrator 18.1.1, SVG Export Plug-In . SVG Version: 6.00 Build 0)  -->
<svg version="1.1" id="Layer_1" xmlns="http://www.w3.org/2000/svg" xmlns:xlink="http://www.w3.org/1999/xlink" x="0px" y="0px"
	 viewBox="0 0 500 500" enable-background="new 0 0 500 500" xml:space="preserve">
<g id="Layer_2">
	<circle fill="#1a1a1a" cx="250" cy="250" r="250"/>
</g>
<g id="Layer_1_1_">
	<line id="bar" fill="none" stroke="#fff" stroke-width="3" stroke-miterlimit="10" x1="185.4" y1="310.4" x2="316.4" y2="310.4"/>
	<g id="rightleg">
		<path fill="none" stroke="#fff" stroke-width="3" stroke-miterlimit="10" d="M264.8,217.7c-0.5,0.7-0.6,1.9-0.2,2.7l67.5,119.2
			c0.4,0.8,1.2,2,1.7,2.7l36.9,54c0.5,0.7,0.6,0.7,0.3-0.1l-25.7-59.6c-0.3-0.8-1-2.1-1.4-2.8l-71.5-123.9c-0.4-0.8-1.2-0.8-1.7-0.1
			L264.8,217.7z"/>
	</g>
	<g id="leftleg">
		<path fill="none" stroke="#fff" stroke-width="3" stroke-miterlimit="10" d="M235.5,217.4c0.5,0.7,0.6,1.9,0.2,2.7l-67.9,119.5
			c-0.4,0.8-1.2,2-1.7,2.7l-36.9,54c-0.5,0.7-0.6,0.7-0.3-0.1l25.7-59.6c0.3-0.8,1-2.1,1.4-2.8l71.9-124.3c0.4-0.8,1.2-0.8,1.7-0.1
			L235.5,217.4z"/>
	</g>
	<rect id="quad" x="242.7" y="127.6" fill="none" stroke="#c392ff" stroke-width="3" stroke-miterlimit="10" width="15.1" height="38.4"/>
	<g id="penta">
		<path fill="none" stroke="#c392ff" stroke-width="3" stroke-miterlimit="10" d="M274.8,166.2c0.7,0,1.3,0.6,1.3,1.3v33.7
			c0,0.7-0.3,1.7-0.8,2.3L251,236.6c-0.4,0.6-1.1,0.6-1.5,0l-24.3-33.1c-0.4-0.6-0.8-1.6-0.8-2.3v-33.7c0-0.7,0.6-1.3,1.3-1.3H274.8
			z"/>
	</g>
	<ellipse id="circle" fill="none" stroke="#fff" stroke-width="3" stroke-miterlimit="10" cx="250.3" cy="190.7" rx="11" ry="10.3"/>
	<g id="leftbrace" enable-background="new">
		<path stroke="#c392ff" d="M114.3,391.4c-7.7-1.3-14.5-3.7-20.3-7.3c-5.8-3.6-10.6-8-14.5-13.3c-3.9-5.2-6.8-11.1-8.7-17.7c-2-6.6-3-13.5-3.1-20.6
			v-26.5c-0.1-11.9-3.1-20.7-9.1-26.4c-6-5.7-14.8-8.7-26.4-8.9v-3.4h-0.1v-3.4v-2.8l0.1-3.6c11.6-0.3,20.4-3.2,26.4-8.9
			c6-5.7,9-14.4,9.1-26.2v-26.8c0.1-7.1,1.1-14,2.9-20.6c1.9-6.6,4.7-12.5,8.5-17.9c3.8-5.3,8.6-9.8,14.4-13.5
			c5.8-3.7,12.7-6.1,20.6-7.4l2.4,10.1c-6.3,1.2-11.6,3.3-15.8,6.3c-4.3,3-7.7,6.7-10.3,11.1c-2.6,4.4-4.5,9.3-5.6,14.7
			c-1.1,5.4-1.8,11.1-1.9,17.1v26.8c-0.2,10.5-2.7,19.4-7.7,26.5c-5,7.1-12.4,12.3-22.1,15.3c9.8,3.1,17.2,8.2,22.1,15.4
			c5,7.2,7.5,16,7.7,26.5v26.5c0.1,6,0.8,11.7,2.2,17.1c1.4,5.4,3.4,10.2,6.3,14.5c2.8,4.3,6.3,7.9,10.5,10.9
			c4.2,3,9.2,5.1,14.9,6.3L114.3,391.4z"/>
	</g>
	<g id="rightbrace" enable-background="new">
		<path stroke="#c392ff" d="M383.2,381.2c5.7-1.2,10.7-3.3,14.9-6.3c4.2-3,7.7-6.6,10.5-10.9c2.8-4.3,4.9-9.1,6.3-14.5c1.4-5.4,2.1-11.1,2.2-17.1
			v-26.5c0.2-10.5,2.7-19.3,7.7-26.5c5-7.2,12.4-12.3,22.1-15.4c-9.8-3.1-17.2-8.2-22.1-15.3c-5-7.1-7.5-16-7.7-26.5v-26.8
			c-0.1-6-0.7-11.7-1.9-17.1c-1.1-5.4-3-10.4-5.6-14.7c-2.6-4.4-6-8.1-10.3-11.1c-4.3-3-9.5-5.1-15.8-6.3l2.4-10.1
			c7.9,1.3,14.8,3.7,20.6,7.4c5.8,3.7,10.6,8.1,14.4,13.5c3.8,5.3,6.6,11.3,8.5,17.9c1.9,6.6,2.9,13.5,2.9,20.6v26.8
			c0.1,11.8,3.1,20.6,9.1,26.2c6,5.7,14.8,8.6,26.4,8.9l0.1,3.6v2.8v3.4h-0.1v3.4c-11.7,0.3-20.5,3.2-26.4,8.9
			c-6,5.7-9,14.5-9.1,26.4v26.5c-0.1,7.1-1.1,14-3.1,20.6c-2,6.6-4.9,12.5-8.7,17.7c-3.9,5.2-8.7,9.7-14.5,13.3
			c-5.8,3.6-12.5,6.1-20.3,7.3L383.2,381.2z"/>
	</g>
</g>
</svg>
