<?xml version="1.0" standalone="no"?>
<!DOCTYPE svg PUBLIC "-//W3C//DTD SVG 20010904//EN"
 "http://www.w3.org/TR/2001/REC-SVG-20010904/DTD/svg10.dtd">
<svg version="1.0" xmlns="http://www.w3.org/2000/svg"
 width="800.000000pt" height="800.000000pt" viewBox="0 0 800.000000 800.000000"
 preserveAspectRatio="xMidYMid meet">
<metadata>
Created by potrace 1.11, written by Peter Selinger 2001-2013
</metadata>
<g transform="translate(0.000000,800.000000) scale(0.100000,-0.100000)"
fill="#000000" stroke="none">
<path d="M2175 7532 c-93 -45 -119 -100 -130 -276 -3 -34 -5 -61 -5 -61 -11 0
-16 -441 -6 -520 4 -27 9 -79 11 -115 5 -74 14 -167 21 -225 3 -22 7 -58 9
-80 4 -44 12 -106 20 -145 2 -14 7 -47 11 -75 3 -27 8 -53 10 -56 1 -3 6 -28
10 -55 3 -27 8 -56 10 -64 2 -8 13 -58 24 -110 12 -52 23 -104 26 -115 3 -11
7 -27 9 -35 2 -8 4 -15 5 -15 1 0 3 -7 5 -15 12 -59 86 -292 111 -348 88 -201
157 -319 248 -427 51 -60 60 -69 132 -135 50 -46 161 -119 243 -160 70 -35
252 -97 310 -106 20 -3 55 -10 79 -15 23 -5 59 -12 79 -15 58 -9 114 -45 136
-88 16 -31 21 -62 23 -159 1 -67 3 -152 4 -188 1 -37 -3 -76 -9 -88 -7 -12 -9
-21 -6 -21 4 0 -3 -12 -15 -27 -22 -28 -90 -79 -90 -67 0 3 -6 1 -14 -6 -8 -6
-37 -18 -63 -25 -85 -23 -417 -125 -433 -132 -8 -4 -19 -8 -25 -8 -5 -1 -17
-5 -25 -8 -23 -9 -158 -49 -167 -49 -5 0 -12 -3 -18 -8 -5 -4 -39 -17 -75 -28
-90 -28 -381 -141 -397 -154 -7 -6 -13 -8 -13 -5 0 12 -158 -73 -226 -121
-289 -205 -391 -486 -268 -738 14 -28 34 -61 45 -72 10 -12 19 -24 19 -28 0
-4 10 -15 22 -26 30 -26 34 -9 15 65 l-14 54 46 -14 c25 -8 57 -16 71 -18 14
-1 32 -4 40 -6 9 -3 14 2 11 11 -2 8 -5 29 -7 45 -2 17 -6 35 -8 42 -3 6 1 16
7 21 18 14 126 15 143 2 8 -7 14 -10 14 -6 0 12 81 -35 87 -49 3 -8 9 -15 14
-15 5 0 24 -15 42 -33 105 -100 149 -132 202 -148 18 -5 17 -8 -12 -25 -18
-10 -33 -22 -33 -25 0 -3 30 -16 68 -29 37 -13 72 -26 77 -30 6 -4 24 -11 40
-15 l30 -8 -30 -8 c-16 -5 -45 -11 -65 -14 -70 -11 -76 -16 -39 -32 19 -8 43
-19 54 -23 11 -4 34 -13 50 -20 l30 -13 -50 -17 c-101 -34 -277 -4 -418 72
-11 5 -21 7 -24 5 -4 -5 29 -27 177 -122 19 -12 73 -47 120 -77 47 -30 102
-64 123 -77 20 -12 37 -26 37 -30 0 -4 -15 -19 -32 -33 -31 -25 -68 -55 -95
-78 -7 -5 -15 -10 -18 -10 -2 0 -16 -10 -30 -22 -54 -47 -207 -129 -285 -153
-88 -26 -100 -28 -205 -28 -82 0 -125 6 -240 35 -187 48 -319 72 -520 94 -35
4 -293 16 -315 15 -8 -1 -31 -1 -50 0 -43 1 -32 1 -162 -5 -169 -8 -271 -17
-352 -32 -15 -3 -81 -22 -136 -39 -60 -19 -150 -67 -160 -85 -21 -40 2 -78 85
-138 27 -20 52 -39 55 -42 3 -4 28 -21 55 -40 28 -19 52 -37 55 -40 3 -4 50
-33 105 -65 55 -32 111 -65 125 -74 14 -8 28 -14 33 -13 4 1 7 -2 7 -8 0 -5 4
-10 9 -10 6 0 38 -17 73 -37 35 -21 65 -38 68 -38 5 -1 131 -69 167 -91 30
-19 73 -24 263 -29 163 -5 221 -9 270 -20 14 -2 39 -7 55 -11 17 -3 77 -17
135 -31 58 -14 114 -26 125 -28 11 -2 62 -11 114 -19 99 -17 204 -27 286 -27
76 0 188 12 208 22 9 6 17 8 17 5 0 -9 130 33 236 77 98 41 164 65 197 71 7 2
23 6 37 9 14 4 36 9 50 12 14 2 66 14 115 25 50 12 101 23 115 26 14 3 32 7
40 9 8 3 33 7 55 11 22 3 43 8 46 10 6 3 63 15 89 18 9 1 20 5 27 9 6 4 27 8
47 9 20 2 36 5 36 8 0 3 8 6 18 7 9 1 64 14 122 28 58 15 114 29 126 31 12 2
40 10 63 18 22 9 41 13 41 9 0 -3 6 0 13 6 8 6 17 8 20 4 4 -3 13 -1 20 5 8 7
16 9 19 7 3 -3 16 -1 30 4 14 5 41 12 62 15 21 3 70 13 109 20 40 8 96 18 126
21 30 4 63 8 73 10 11 2 49 7 86 11 37 3 85 8 107 10 240 24 1283 25 1365 1
28 -8 50 -19 50 -26 0 -4 -12 -20 -27 -37 -30 -33 -42 -47 -113 -134 -25 -30
-49 -60 -55 -66 -5 -6 -23 -28 -40 -48 -16 -21 -40 -50 -53 -65 -44 -49 -45
-58 -9 -71 17 -7 79 -35 137 -62 58 -28 114 -53 125 -58 11 -4 38 -15 60 -24
22 -8 51 -18 65 -20 14 -2 48 -9 75 -16 61 -14 182 -16 250 -6 28 5 59 10 70
11 12 2 39 -4 60 -11 70 -25 128 -35 194 -35 66 0 226 35 250 55 8 6 16 10 18
8 2 -1 19 5 39 13 20 8 38 15 39 15 2 0 25 10 52 22 26 11 53 22 58 24 6 1 21
6 35 12 14 5 28 9 31 8 3 0 12 4 20 11 8 7 44 15 80 19 59 6 70 4 105 -18 21
-14 57 -47 79 -73 136 -161 208 -187 405 -143 20 4 50 37 50 55 0 7 4 13 8 13
4 0 8 9 9 21 2 28 30 114 55 169 83 187 83 185 19 379 -57 169 -116 291 -196
400 -26 36 -159 161 -171 161 -8 0 -14 4 -14 8 0 5 -15 16 -32 25 -18 10 -49
27 -68 38 -19 12 -62 36 -95 54 -33 17 -80 43 -105 56 -25 13 -46 27 -48 32
-2 4 -8 7 -13 7 -8 0 -43 23 -171 113 -38 26 -97 55 -128 62 -8 2 -15 4 -15 5
0 2 -10 4 -55 15 -111 25 -646 26 -950 0 -103 -8 -262 -23 -317 -30 -24 -3
-62 -7 -84 -10 -38 -4 -73 -9 -149 -20 -14 -2 -50 -7 -80 -10 -30 -4 -64 -9
-74 -11 -11 -2 -40 -6 -65 -9 -25 -3 -57 -7 -71 -10 -14 -3 -50 -7 -80 -10
-30 -3 -62 -7 -70 -10 -8 -2 -46 -7 -85 -11 -38 -3 -83 -8 -100 -9 -16 -2 -57
-6 -90 -10 -33 -3 -71 -8 -85 -10 -14 -2 -60 -7 -103 -10 l-78 -7 32 52 c17
28 41 79 54 113 12 34 25 69 28 77 68 187 136 387 143 426 20 110 68 227 116
284 19 23 88 74 88 65 0 -4 7 -1 17 6 11 10 51 15 132 16 176 4 204 10 297 69
46 29 174 146 174 159 0 3 13 23 29 46 39 54 86 168 115 281 23 88 29 117 41
206 3 20 8 47 10 59 3 12 8 49 11 81 5 58 4 60 -33 99 -71 73 -196 150 -283
173 -77 20 -156 25 -250 16 -60 -5 -72 -7 -170 -32 -87 -22 -157 -22 -203 0
-31 16 -38 25 -44 60 -17 101 3 235 49 319 21 40 2 27 518 350 80 50 178 112
218 139 41 26 78 48 83 48 5 0 9 5 9 10 0 6 5 10 10 10 6 0 76 43 155 95 153
102 258 197 320 291 42 62 92 170 97 205 2 13 7 29 10 35 4 6 9 24 12 40 3 16
8 49 12 74 9 52 9 506 1 565 -4 22 -9 63 -12 90 -3 28 -8 66 -11 85 -3 19 -6
44 -8 55 -5 32 -16 85 -33 155 -8 36 -17 76 -20 90 -2 14 -10 46 -18 73 -8 26
-11 47 -8 47 3 0 1 6 -5 13 -5 6 -15 30 -21 53 -13 50 -42 77 -101 93 -57 17
-95 60 -116 133 -16 54 -53 106 -78 109 -33 4 -126 3 -126 -1 0 -3 -12 -5 -27
-6 -128 -4 -188 -28 -412 -163 -116 -70 -215 -121 -236 -121 -8 0 -15 -4 -15
-10 0 -5 -8 -10 -17 -10 -10 0 -29 -6 -43 -13 -14 -7 -47 -21 -75 -31 -27 -10
-59 -22 -70 -26 -24 -11 -156 -61 -170 -64 -5 -2 -17 -5 -25 -8 -79 -29 -110
-39 -129 -43 -11 -2 -26 -7 -32 -11 -6 -3 -32 -12 -57 -19 -26 -7 -94 -27
-152 -43 -136 -39 -209 -55 -304 -67 -27 -3 -52 -8 -56 -10 -13 -8 -235 -19
-390 -19 -181 0 -268 7 -299 24 -12 6 -21 8 -21 5 0 -3 -18 4 -40 15 -81 41
-139 122 -198 276 -10 27 -23 58 -27 69 -5 11 -9 22 -9 25 -1 3 -4 10 -7 15
-4 6 -12 35 -19 65 -36 155 -130 274 -255 324 -59 24 -88 29 -185 33 -99 3
-121 1 -155 -15z m215 -4796 c96 -14 198 -48 377 -127 26 -11 61 -26 78 -33
l29 -13 -29 -1 c-17 -1 -52 -5 -80 -11 -79 -15 -311 -7 -365 14 -25 9 -50 18
-55 19 -45 8 -172 123 -155 140 4 4 37 10 72 13 34 3 65 7 67 9 2 2 7 2 10 0
3 -2 26 -7 51 -10z m1060 -17 c14 -8 26 -15 28 -15 6 -3 -30 -100 -41 -111
-12 -11 -111 -23 -232 -28 -33 -2 -60 -4 -60 -5 0 -1 -39 -3 -87 -6 -88 -5
-88 -4 -88 20 0 21 11 28 103 61 298 110 321 116 377 84z"/>
</g>
</svg>
