<?xml version="1.0" encoding="utf-8"?>
<!-- Generator: Adobe Illustrator 18.1.1, SVG Export Plug-In . SVG Version: 6.00 Build 0)  -->
<svg version="1.1" id="Layer_1" xmlns="http://www.w3.org/2000/svg" xmlns:xlink="http://www.w3.org/1999/xlink" x="0px" y="0px"
	 viewBox="121.3 115.8 257.1 129" enable-background="new 121.3 115.8 257.1 129" xml:space="preserve">
<path fill="#fff" id="topguide1" d="M499,228.2c-8.3,0.2-16.4-1.8-24.3-4.1c-15.3-4.5-29.3-12.2-43.5-19c-11.7-5.7-23.5-10.5-36.4-12.6
	c-16.3-2.7-32.2-1.6-47.9,3.7c-13.5,4.5-26.1,11.1-38.9,17.4c-11.3,5.6-22.9,10.3-35.2,13c-13,2.8-26.1,3.3-39.4,1.2
	c-17.3-2.7-32.8-9.6-48.3-17.2c-10.7-5.3-21.2-10.7-32.5-14.4c-23.1-7.4-45.8-6.6-68.5,2c-11.6,4.4-22.5,10.3-33.6,15.7
	c-10.4,5.1-21.1,9.4-32.4,12.1c-5,1.2-10,2.1-15.2,2.3c0-1,0-2,0-3c11.8-0.7,23-4.1,33.9-8.5c12.1-5,23.5-11.2,35.3-16.8
	c15.4-7.1,31.4-12,48.6-12c16,0,31.1,3.9,45.5,10.4c11.6,5.3,22.9,10.9,34.5,16.3c30.2,14.1,60.8,15,91.8,2.6
	c11.7-4.7,22.7-10.7,34-16.1c14.5-6.8,29.4-11.8,45.4-13c9.5-0.7,18.8,0.4,28,2.4c16.2,3.5,30.8,11,45.3,18.4
	c14.2,7.1,28.8,13.3,44.6,15.8c3,0.5,5.9,0.8,8.8,0.6C499,226.2,499,227.2,499,228.2z"/>
  <path fill="#fff" id="topguide2" d="M3,232.1c12.2-1.5,24-4.3,35.4-8.9c9.3-3.8,18.3-8.4,27.3-12.9c10.5-5.2,21.1-10.2,32.6-13c19.5-4.8,38.7-3.4,57.4,3.7
    c10.4,3.9,20.1,9.1,30.1,13.9c9.9,4.9,19.9,9.4,30.7,12.6c26,7.6,51.5,6.3,76.8-3.5c13-5,25.1-11.8,37.7-17.7
    c8.5-4,17.3-7.5,26.5-9.5c17.9-4,35.4-2.9,52.7,3.2c10.5,3.7,20.3,8.6,30.3,13.6c15,7.4,30.1,14.4,46.8,17.1c3.9,0.6,7.8,1,11.8,1.5
    c0,1,0,2,0,3c-17.1-1.1-33-6.2-48.4-13.3c-12.4-5.8-24.4-12.6-37.2-17.5c-15.1-5.8-30.5-8.4-46.6-6.2c-11.9,1.7-23,5.7-33.9,10.6
    c-10.7,4.9-20.9,10.5-31.6,15.3c-18.8,8.2-38.3,12.3-58.8,11c-17.1-1-33.1-5.9-48.4-13.2c-11-5.3-22-10.7-33.1-15.7
    c-26.9-12.1-53.8-11.8-80.6,0.6c-12.1,5.7-24.1,11.6-36.3,17.2c-11.5,5.3-23.4,8.9-36,10.2c-1.7,0.2-3.3,0.6-4.9,0.9
    C3,234.1,3,233.1,3,232.1z"/>
<path fill="#fff" id="bottomguide1" d="M3,131c11.5,0.6,22.4,3.8,33,7.9c13.5,5.4,26.2,12.5,39.5,18.5c16.9,7.5,34.3,11.8,52.9,10.4c15.3-1.1,29.4-6,43.1-12.5
	c13-6.2,25.5-13.1,39.1-18.1c29.4-10.6,58.3-9.3,86.8,3.4c12.5,5.6,24.7,11.8,37.2,17.5c28.5,12.9,57.2,13.5,85.9,0.7
	c13-5.8,25.7-12.1,38.6-18.1c10.2-4.8,21-7.7,32.1-9.5c2.6-0.4,5.3-0.6,7.9-0.3c0,1,0,2,0,3c-9.2-0.5-18,2.2-26.6,4.9
	c-14.1,4.4-27,11.6-40.2,18.1c-15.1,7.3-30.7,12.9-47.7,14c-15.1,1-29.6-1.7-43.7-6.8c-14.3-5.3-27.5-12.8-41.3-19.1
	c-15.4-7-31.3-11.3-48.3-11.6c-17.8-0.3-34.7,3.9-50.8,11.5c-11,5.2-22,10.5-33.1,15.8c-13.9,6.6-28.7,10.3-43.9,10.7
	c-14.5,0.4-28.6-2.7-42.1-8c-11.2-4.5-21.8-10.1-32.7-15.4c-12.7-6.2-25.8-11.1-39.8-13.3c-2-0.3-3.9-0.6-6-0.5
	C3,132.9,3,131.9,3,131z"/>
<path fill="#fff" id="bottomguide2" d="M499,127c-14.2,0.8-27.7,4.5-40.7,10c-12.9,5.5-25.2,12.4-38.1,18.1c-13.6,6-27.7,9.6-42.7,9.6
	c-16.4-0.1-31.5-4.9-46.1-11.7c-14.2-6.7-27.9-14.4-42.8-19.5c-29.3-10-58.1-8.6-86.6,3.4c-13,5.5-25.2,12.3-38.1,18
	c-14.2,6.3-28.9,10.3-44.5,9.9c-14.3-0.4-27.8-3.9-40.7-9.8c-9.3-4.3-18.5-8.8-27.7-13.3C35.8,134,19.9,128.7,3,127c0-1,0-2,0-3
	c20.4,1.9,39,9.4,57.1,18.6c11.3,5.8,22.6,11.5,34.9,15.2c22.5,6.6,44.3,4.5,65.8-4.9c13.2-5.8,25.8-12.7,39-18.5
	c20.1-8.8,41.2-12.1,62.9-10c17.3,1.7,33.3,7.7,48.9,15.5c10.8,5.4,21.5,10.9,32.7,15.3c22.9,8.8,45.7,8.7,68.7-0.2
	c11.7-4.6,22.7-10.5,34-16c14.3-6.8,29-12.1,44.6-14.2c2.5-0.3,5-0.4,7.4-0.6C499,125,499,126,499,127z"/>
<path fill="#fff" id="cloud1topright" d="M234.7,244.5c-1.6,1.7-3.1,0.7-4.5,0.6c-7.6-0.9-14.8,0-21.3,4.4c-3.8,2.6-7.9,3.8-12.7,2.7
	c-3.9-0.9-7.5,0.3-10.8,2.4c-2.4,1.5-4.7,3.2-6.8,4.9c-4.7,3.5-9.6,5.3-15.8,4.1c-4.2-0.9-7.2,2.2-9.1,5.3c-3,4.7-6.7,7.2-12.1,7.2
	c-2.3,0-3.6,1-4.9,2.7c-4.1,5.3-9.5,6.3-15.6,4.6c-2.4-0.7-4.4-0.6-6.6,0.2c-6.5,2.4-11.8,0.5-15.9-5.4c-1.8-2.7-5.2-3.6-8.1-2
	c-2.1,1.1-4.2,2-6.5,1.9c-2.8-0.1-5.5-0.9-6.9-3.3c-1.5-2.4-3.5-3.2-6-3.8c-4.5-1.1-6.3-3.7-6.3-8.2c0-3.5-2.1-6.6-5.4-7.6
	c-3-0.9-5.6-2.2-7.7-4.3c-2.5-2.3-5.4-3.1-8.6-2.8c-1.8,0.2-3.7,0.2-5.5,0.4c-6.8,0.7-12.6-2-17.8-6.1c-0.9-0.7-1.7-1.6-1.5-2.9
	c0.6-1.2,1.6-1,2.6-0.8c8.5,1.8,16.4,0.9,23.2-5.2c2.9-2.6,6.3-3.5,10.1-3.2c6.8,0.4,12.7-1.6,17.8-6.2c4.2-3.8,9.1-5.3,14.5-5.6
	c2.4-0.1,3.9-0.8,5.1-3c2.4-4.2,6.1-6.4,11-6.2c1.9,0.1,3.4-0.5,4.9-1.7c4.5-3.7,9.4-3.6,14.1-0.1c1.5,1.2,2.9,2,4.9,2
	c1.7,0,3.6,0.3,4.7,1.5c3.7,4.3,9.2,2.9,13.7,4.7c1.1,0.4,1.9-0.2,2.8-0.6c6.5-3.3,12.5-2.6,17.6,2.8c1.2,1.2,2.4,1.5,4,1.6
	c5.3,0.2,9.8,1.6,12,7c0.7,1.7,2.1,1.9,3.7,1.9c5.2-0.1,9.8,1.4,13.7,4.8c4.4,3.9,9.3,4.6,14.9,3.5c7.1-1.4,13.4,0.9,19.2,4.8
	C233.3,242.2,234.4,243,234.7,244.5z M125.1,245.7c-0.4,0.9-0.6,1.4-0.9,1.7c-6.2,7.9-4.9,12.7,4.5,16.7c1.8,0.7,2.5,2,3.1,3.6
	c1.7,4.2,5.3,5.2,9.2,5.4c4,0.3,7.3-1.2,9.1-4.8c1.2-2.4,2.6-4,5-5.1c3.2-1.4,4.7-4.1,4.5-7.6c-0.3-3.9-2.3-6.5-5.8-8
	c-3.4-1.4-6.8-1.4-9.8,1c-1.7,1.4-2.9,3.3-1.8,5.7c1.1,2.2,3,2.9,5.4,2.7c1.2-0.1,2.5-1.3,3.6,0.3c-2.2,3-6.2,3.5-9.2,1.3
	c-4-2.8-3.9-6.9,0.5-13.4c-5-5.6-5.8-10.3-2.4-13.2c2.9-2.5,6.9-2.4,9.4,0.3c-1.2,1.3-2.8,0.6-4.2,0.7c-2,0.2-3.5,1.1-4.2,3
	c-0.6,1.8,0,3.3,1.3,4.6c2.6,2.6,5.8,3.2,9.1,2c3.2-1.2,5.9-3.2,6.3-6.9c0.4-3.7-0.2-7.2-3.8-8.9c-3.2-1.5-5.7-3.4-8-6.2
	c-4.2-5.1-14.8-3.5-16.8,2.5c-1,2.9-2.4,4.3-4.9,5.7c-6.1,3.5-6.7,9.5-2,14.5C123.2,243.9,124,244.7,125.1,245.7z M120.7,246.2
	c-2.1-2.5-3.7-5-4.7-7.6c-7.3,0.1-11-2.2-11.9-7.2c-0.9-5,1.4-8.9,6.2-10.4c3.9-1.3,6.9,0.2,9,4.3c-0.3,0.2-0.5,0.5-0.8,0.6
	c-1.6,0.4-2.3-1.1-3.4-1.7c-2.8-1.4-6.4,0-7.8,3c-1.3,2.7,0.2,6.5,3.1,7.9c3,1.4,5.5,0.6,6.8-2.6c1.3-2.9,3.4-4.9,5.9-6.4
	c0.8-0.5,2.1-1,2.3-1.8c1-3.7,3.6-6.1,6.3-8.4c-1.1-2.4-3.1-3.3-5-3.1c-3.1,0.3-5.1-0.4-7.2-2.8c-2.5-2.9-7.5-2.4-10.2,0.5
	c-0.8,0.8-1.1,2.1-2.4,2.7c-1.3-0.2-2.8-0.6-4.2-0.6c-6.8-0.2-10.9,5.1-8.4,11.4c0.9,2.3,0.5,3.5-0.9,5.3c-2.6,3.2-2.6,6.4-0.4,9.6
	c1.3,1.9,3.3,3,5.4,3.2c3.2,0.3,5,1.3,5.5,4.9c0.4,3,3,4.7,6,5.2C114.8,252.9,117.9,251.4,120.7,246.2z M117.1,255.2
	c-2.1-0.7-4.1-0.1-6.1-0.1c-4.2,0-7.6-2-9.3-5.5c-1.5-3.2-3.4-4.7-6.6-5.7c-3.8-1.1-4.9-0.9-6.9,2.2c-2.4,3.7-2.3,6.4,1.2,9.7
	c2,1.9,2,3.3,0.7,5.5c-3,5.3,0,10.6,6.1,11.5c1.3,0.2,2.7-0.2,3.9,0.5c3.6,8.2,7.1,9.7,15.9,6.2c2-0.8,3.4-0.1,5.2,0.5
	c5.9,2.3,10.9,0.5,13.8-4.7c-1.2-1.8-3.8-2.4-4.6-4.5c-1.5-4.2-5.3-5-8.7-6.5c-1.1,1.3-1.9,2.6-3,3.5c-2.7,2.3-5.7,3.4-9.1,2.2
	c-3.2-1-5-3.3-5.7-6.3c-0.9-4.2,1.7-7.2,6-7c0.5,1.2-0.2,1.9-1.1,2.4c-1.9,1.3-2.7,2.9-1.6,5.1c1.2,2.3,3.2,3.4,5.7,3.2
	c3.7-0.2,6.3-3.4,6-7.1C118.4,258.6,118.2,256.9,117.1,255.2z M59.7,251.7c1.3-0.8,1.3-1.9,1.7-2.8c2.8-5.8,8.8-8.1,14.5-5.8
	c3.6,1.5,5.4,5.8,3.7,9c-1.7,3.5-5.8,4.9-8.7,2.9c-1-0.7-1.8-1.6-0.7-2.8c0.7-0.2,1.3,0,1.9,0.3c2.3,1,4,0.1,4.8-2
	c0.9-2.1-0.5-3.4-2.1-4.5c-3.2-1.9-7-1.2-9.3,1.7c-2.5,3.1-2.4,6,0.7,8.7c1.8,1.6,2.5,2.9,1.8,5.5c-1,3.5,0.9,5.6,4.6,6
	c1.5,0.2,3-0.3,4.4,0.5c3.2,6.8,6.6,8.2,11.4,4.3c-1.5-3.4-3.9-6.6-2-10.7c1.1-2.4,0.5-4.2-0.9-6.3c-2.8-4.6-2-9.2,1.7-13.1
	c0.9-0.9,2.4-1.3,2.8-3.2c-2.2-1.6-0.7-4.8-2.5-6.9c-2.2-0.4-3.9,0.5-5.6,1.6c-2.1,1.4-4.1,2.8-6.3,4c-4,2.2-8.2,3.9-12.8,2.5
	c-5.6-1.7-10.7-1.2-15.8,1.5c-2.4,1.3-5.5,2-7.6,0.8c-4.2-2.4-7.7-0.1-11.8-0.1c0.7,2,2.2,2,3.4,2.3c3.6,0.8,7.2,0.5,10.8,0.1
	c4.8-0.5,8.8,0.6,12.3,3.8C55.6,250.3,57.2,251.5,59.7,251.7z M171.4,230.5c-0.2,1.3-1.3,1.3-2.3,1.6c-1.6,0.5-2.7,1.5-2.5,3.3
	c0.2,2,1.8,2.6,3.6,2.9c2.8,0.4,5.3-0.1,7-2.6c1.8-2.5,2.4-5,1-7.9c-1.8-3.8-4.7-5.9-9.2-5.1c-3.2,0.5-4.7-0.5-6.5-2.9
	c-3.5-4.3-9.1-4.7-13.5-1.4c0.6,2.8,2.5,3.9,5,5c7.2,3.2,9.2,12.7,4,18.7c-0.7,0.8-2.1,1.2-2,2.6c1.5,1.5,3.2,2.9,4.5,4.6
	c1.5,2,3.2,2,5.3,1.3c2.7-0.9,5.2-2.4,7.4-3.9c5.3-3.4,11.1-4.5,17.1-3.2c5.3,1.2,10.1,0.6,15-1.4c2.6-1,5.6-1.8,7.7-0.6
	c4,2.3,7.4,0.1,11.2,0.2c-0.2-1.5-1.1-1.6-1.9-1.8c-3.3-1-6.5-1-9.8-0.4c-6.3,1.2-11.8-0.1-16.7-4.3c-1.6-1.4-3.6-2.4-5.7-3.1
	c-5.5-1.8-6.8-1.3-9.7,3.8c-0.3,0.6-0.7,1.2-1.1,1.7c-2.9,3.7-9.3,4.8-13.1,2.4c-2.9-1.8-3.7-5.5-1.9-8.2
	C166.4,229.1,168.6,228.7,171.4,230.5z M41.7,240.1c2.7,0.1,4.9-1.1,7.1-2c3.3-1.3,6.6-2.4,10.1-1.3c7.1,2.3,13.3,0.5,19-3.9
	c2.7-2,5.5-3.7,8.9-3.8c2.5-0.1,4.2-1.2,4.2-3.9c-0.1-2.9-1.8-4.2-5.2-3.9c-4.6,0.4-8.6,2-12.2,5c-3.9,3.2-8,5.9-13.1,6.4
	c-2.5,0.3-5,0.1-7.4,0.2C48.5,233.3,44,236,41.7,240.1z M210.8,244.3c-3.1-0.2-5.1,0.6-7,1.4c-4.2,1.6-8.4,1.9-12.6,0.9
	c-6.5-1.5-12.4-0.2-17.9,3.4c-1.9,1.3-4,2.4-6.2,3.2c-4.8,1.6-4.8,1.6-4.5,7c3.2,1.3,6.3,1.3,9.4-0.2c2.2-1.1,4.3-2.4,6.3-4.1
	c6-5,12.4-7.8,20.4-6.6C203.3,249.9,207,247.9,210.8,244.3z"/>
<path fill="#fff" id="cloud1bottomright" d="M234.7,115.5c-1.6,1.7-3.1,0.7-4.5,0.6c-7.6-0.9-14.8,0-21.3,4.4c-3.8,2.6-7.9,3.8-12.7,2.7
	c-3.9-0.9-7.5,0.3-10.8,2.4c-2.4,1.5-4.7,3.2-6.8,4.9c-4.7,3.5-9.6,5.3-15.8,4.1c-4.2-0.9-7.2,2.2-9.1,5.3c-3,4.7-6.7,7.2-12.1,7.2
	c-2.3,0-3.6,1-4.9,2.7c-4.1,5.3-9.5,6.3-15.6,4.6c-2.4-0.7-4.4-0.6-6.6,0.2c-6.5,2.4-11.8,0.5-15.9-5.4c-1.8-2.7-5.2-3.6-8.1-2
	c-2.1,1.1-4.2,2-6.5,1.9c-2.8-0.1-5.5-0.9-6.9-3.3c-1.5-2.4-3.5-3.2-6-3.8c-4.5-1.1-6.3-3.7-6.3-8.2c0-3.5-2.1-6.6-5.4-7.6
	c-3-0.9-5.6-2.2-7.7-4.3c-2.5-2.3-5.4-3.1-8.6-2.8c-1.8,0.2-3.7,0.2-5.5,0.4c-6.8,0.7-12.6-2-17.8-6.1c-0.9-0.7-1.7-1.6-1.5-2.9
	c0.6-1.2,1.6-1,2.6-0.8c8.5,1.8,16.4,0.9,23.2-5.2c2.9-2.6,6.3-3.5,10.1-3.2c6.8,0.4,12.7-1.6,17.8-6.2c4.2-3.8,9.1-5.3,14.5-5.6
	c2.4-0.1,3.9-0.8,5.1-3c2.4-4.2,6.1-6.4,11-6.2c1.9,0.1,3.4-0.5,4.9-1.7c4.5-3.7,9.4-3.6,14.1-0.1c1.5,1.2,2.9,2,4.9,2
	c1.7,0,3.6,0.3,4.7,1.5c3.7,4.3,9.2,2.9,13.7,4.7c1.1,0.4,1.9-0.2,2.8-0.6c6.5-3.3,12.5-2.6,17.6,2.8c1.2,1.2,2.4,1.5,4,1.6
	c5.3,0.2,9.8,1.6,12,7c0.7,1.7,2.1,1.9,3.7,1.9c5.2-0.1,9.8,1.4,13.7,4.8c4.4,3.9,9.3,4.6,14.9,3.5c7.1-1.4,13.4,0.9,19.2,4.8
	C233.3,113.2,234.4,114,234.7,115.5z M125.1,116.7c-0.4,0.9-0.6,1.4-0.9,1.7c-6.2,7.9-4.9,12.7,4.5,16.7c1.8,0.7,2.5,2,3.1,3.6
	c1.7,4.2,5.3,5.2,9.2,5.4c4,0.3,7.3-1.2,9.1-4.8c1.2-2.4,2.6-4,5-5.1c3.2-1.4,4.7-4.1,4.5-7.6c-0.3-3.9-2.3-6.5-5.8-8
	c-3.4-1.4-6.8-1.4-9.8,1c-1.7,1.4-2.9,3.3-1.8,5.7c1.1,2.2,3,2.9,5.4,2.7c1.2-0.1,2.5-1.3,3.6,0.3c-2.2,3-6.2,3.5-9.2,1.3
	c-4-2.8-3.9-6.9,0.5-13.4c-5-5.6-5.8-10.3-2.4-13.2c2.9-2.5,6.9-2.4,9.4,0.3c-1.2,1.3-2.8,0.6-4.2,0.7c-2,0.2-3.5,1.1-4.2,3
	c-0.6,1.8,0,3.3,1.3,4.6c2.6,2.6,5.8,3.2,9.1,2c3.2-1.2,5.9-3.2,6.3-6.9c0.4-3.7-0.2-7.2-3.8-8.9c-3.2-1.5-5.7-3.4-8-6.2
	c-4.2-5.1-14.8-3.5-16.8,2.5c-1,2.9-2.4,4.3-4.9,5.7c-6.1,3.5-6.7,9.5-2,14.5C123.2,114.9,124,115.7,125.1,116.7z M120.7,117.2
	c-2.1-2.5-3.7-5-4.7-7.6c-7.3,0.1-11-2.2-11.9-7.2c-0.9-5,1.4-8.9,6.2-10.4c3.9-1.3,6.9,0.2,9,4.3c-0.3,0.2-0.5,0.5-0.8,0.6
	c-1.6,0.4-2.3-1.1-3.4-1.7c-2.8-1.4-6.4,0-7.8,3c-1.3,2.7,0.2,6.5,3.1,7.9c3,1.4,5.5,0.6,6.8-2.6c1.3-2.9,3.4-4.9,5.9-6.4
	c0.8-0.5,2.1-1,2.3-1.8c1-3.7,3.6-6.1,6.3-8.4c-1.1-2.4-3.1-3.3-5-3.1c-3.1,0.3-5.1-0.4-7.2-2.8c-2.5-2.9-7.5-2.4-10.2,0.5
	c-0.8,0.8-1.1,2.1-2.4,2.7c-1.3-0.2-2.8-0.6-4.2-0.6c-6.8-0.2-10.9,5.1-8.4,11.4c0.9,2.3,0.5,3.5-0.9,5.3c-2.6,3.2-2.6,6.4-0.4,9.6
	c1.3,1.9,3.3,3,5.4,3.2c3.2,0.3,5,1.3,5.5,4.9c0.4,3,3,4.7,6,5.2C114.8,123.9,117.9,122.4,120.7,117.2z M117.1,126.2
	c-2.1-0.7-4.1-0.1-6.1-0.1c-4.2,0-7.6-2-9.3-5.5c-1.5-3.2-3.4-4.7-6.6-5.7c-3.8-1.1-4.9-0.9-6.9,2.2c-2.4,3.7-2.3,6.4,1.2,9.7
	c2,1.9,2,3.3,0.7,5.5c-3,5.3,0,10.6,6.1,11.5c1.3,0.2,2.7-0.2,3.9,0.5c3.6,8.2,7.1,9.7,15.9,6.2c2-0.8,3.4-0.1,5.2,0.5
	c5.9,2.3,10.9,0.5,13.8-4.7c-1.2-1.8-3.8-2.4-4.6-4.5c-1.5-4.2-5.3-5-8.7-6.5c-1.1,1.3-1.9,2.6-3,3.5c-2.7,2.3-5.7,3.4-9.1,2.2
	c-3.2-1-5-3.3-5.7-6.3c-0.9-4.2,1.7-7.2,6-7c0.5,1.2-0.2,1.9-1.1,2.4c-1.9,1.3-2.7,2.9-1.6,5.1c1.2,2.3,3.2,3.4,5.7,3.2
	c3.7-0.2,6.3-3.4,6-7.1C118.4,129.6,118.2,127.9,117.1,126.2z M59.7,122.7c1.3-0.8,1.3-1.9,1.7-2.8c2.8-5.8,8.8-8.1,14.5-5.8
	c3.6,1.5,5.4,5.8,3.7,9c-1.7,3.5-5.8,4.9-8.7,2.9c-1-0.7-1.8-1.6-0.7-2.8c0.7-0.2,1.3,0,1.9,0.3c2.3,1,4,0.1,4.8-2
	c0.9-2.1-0.5-3.4-2.1-4.5c-3.2-1.9-7-1.2-9.3,1.7c-2.5,3.1-2.4,6,0.7,8.7c1.8,1.6,2.5,2.9,1.8,5.5c-1,3.5,0.9,5.6,4.6,6
	c1.5,0.2,3-0.3,4.4,0.5c3.2,6.8,6.6,8.2,11.4,4.3c-1.5-3.4-3.9-6.6-2-10.7c1.1-2.4,0.5-4.2-0.9-6.3c-2.8-4.6-2-9.2,1.7-13.1
	c0.9-0.9,2.4-1.3,2.8-3.2c-2.2-1.6-0.7-4.8-2.5-6.9c-2.2-0.4-3.9,0.5-5.6,1.6c-2.1,1.4-4.1,2.8-6.3,4c-4,2.2-8.2,3.9-12.8,2.5
	c-5.6-1.7-10.7-1.2-15.8,1.5c-2.4,1.3-5.5,2-7.6,0.8c-4.2-2.4-7.7-0.1-11.8-0.1c0.7,2,2.2,2,3.4,2.3c3.6,0.8,7.2,0.5,10.8,0.1
	c4.8-0.5,8.8,0.6,12.3,3.8C55.6,121.3,57.2,122.5,59.7,122.7z M171.4,101.5c-0.2,1.3-1.3,1.3-2.3,1.6c-1.6,0.5-2.7,1.5-2.5,3.3
	c0.2,2,1.8,2.6,3.6,2.9c2.8,0.4,5.3-0.1,7-2.6c1.8-2.5,2.4-5,1-7.9c-1.8-3.8-4.7-5.9-9.2-5.1c-3.2,0.5-4.7-0.5-6.5-2.9
	c-3.5-4.3-9.1-4.7-13.5-1.4c0.6,2.8,2.5,3.9,5,5c7.2,3.2,9.2,12.7,4,18.7c-0.7,0.8-2.1,1.2-2,2.6c1.5,1.5,3.2,2.9,4.5,4.6
	c1.5,2,3.2,2,5.3,1.3c2.7-0.9,5.2-2.4,7.4-3.9c5.3-3.4,11.1-4.5,17.1-3.2c5.3,1.2,10.1,0.6,15-1.4c2.6-1,5.6-1.8,7.7-0.6
	c4,2.3,7.4,0.1,11.2,0.2c-0.2-1.5-1.1-1.6-1.9-1.8c-3.3-1-6.5-1-9.8-0.4c-6.3,1.2-11.8-0.1-16.7-4.3c-1.6-1.4-3.6-2.4-5.7-3.1
	c-5.5-1.8-6.8-1.3-9.7,3.8c-0.3,0.6-0.7,1.2-1.1,1.7c-2.9,3.7-9.3,4.8-13.1,2.4c-2.9-1.8-3.7-5.5-1.9-8.2
	C166.4,100.1,168.6,99.7,171.4,101.5z M41.7,111.1c2.7,0.1,4.9-1.1,7.1-2c3.3-1.3,6.6-2.4,10.1-1.3c7.1,2.3,13.3,0.5,19-3.9
	c2.7-2,5.5-3.7,8.9-3.8c2.5-0.1,4.2-1.2,4.2-3.9c-0.1-2.9-1.8-4.2-5.2-3.9c-4.6,0.4-8.6,2-12.2,5c-3.9,3.2-8,5.9-13.1,6.4
	c-2.5,0.3-5,0.1-7.4,0.2C48.5,104.3,44,107,41.7,111.1z M210.8,115.3c-3.1-0.2-5.1,0.6-7,1.4c-4.2,1.6-8.4,1.9-12.6,0.9
	c-6.5-1.5-12.4-0.2-17.9,3.4c-1.9,1.3-4,2.4-6.2,3.2c-4.8,1.6-4.8,1.6-4.5,7c3.2,1.3,6.3,1.3,9.4-0.2c2.2-1.1,4.3-2.4,6.3-4.1
	c6-5,12.4-7.8,20.4-6.6C203.3,120.9,207,118.9,210.8,115.3z"/>
<path fill="#fff" id="cloud1topleft" d="M491.7,244.5c-1.6,1.7-3.1,0.7-4.5,0.6c-7.6-0.9-14.8,0-21.3,4.4c-3.8,2.6-7.9,3.8-12.7,2.7
	c-3.9-0.9-7.5,0.3-10.8,2.4c-2.4,1.5-4.7,3.2-6.8,4.9c-4.7,3.5-9.6,5.3-15.8,4.1c-4.2-0.9-7.2,2.2-9.1,5.3c-3,4.7-6.7,7.2-12.1,7.2
	c-2.3,0-3.6,1-4.9,2.7c-4.1,5.3-9.5,6.3-15.6,4.6c-2.4-0.7-4.4-0.6-6.6,0.2c-6.5,2.4-11.8,0.5-15.9-5.4c-1.8-2.7-5.2-3.6-8.1-2
	c-2.1,1.1-4.2,2-6.5,1.9c-2.8-0.1-5.5-0.9-6.9-3.3c-1.5-2.4-3.5-3.2-6-3.8c-4.5-1.1-6.3-3.7-6.3-8.2c0-3.5-2.1-6.6-5.4-7.6
	c-3-0.9-5.6-2.2-7.7-4.3c-2.5-2.3-5.4-3.1-8.6-2.8c-1.8,0.2-3.7,0.2-5.5,0.4c-6.8,0.7-12.6-2-17.8-6.1c-0.9-0.7-1.7-1.6-1.5-2.9
	c0.6-1.2,1.6-1,2.6-0.8c8.5,1.8,16.4,0.9,23.2-5.2c2.9-2.6,6.3-3.5,10.1-3.2c6.8,0.4,12.7-1.6,17.8-6.2c4.2-3.8,9.1-5.3,14.5-5.6
	c2.4-0.1,3.9-0.8,5.1-3c2.4-4.2,6.1-6.4,11-6.2c1.9,0.1,3.4-0.5,4.9-1.7c4.5-3.7,9.4-3.6,14.1-0.1c1.5,1.2,2.9,2,4.9,2
	c1.7,0,3.6,0.3,4.7,1.5c3.7,4.3,9.2,2.9,13.7,4.7c1.1,0.4,1.9-0.2,2.8-0.6c6.5-3.3,12.5-2.6,17.6,2.8c1.2,1.2,2.4,1.5,4,1.6
	c5.3,0.2,9.8,1.6,12,7c0.7,1.7,2.1,1.9,3.7,1.9c5.2-0.1,9.8,1.4,13.7,4.8c4.4,3.9,9.3,4.6,14.9,3.5c7.1-1.4,13.4,0.9,19.2,4.8
	C490.3,242.2,491.4,243,491.7,244.5z M382.1,245.7c-0.4,0.9-0.6,1.4-0.9,1.7c-6.2,7.9-4.9,12.7,4.5,16.7c1.8,0.7,2.5,2,3.1,3.6
	c1.7,4.2,5.3,5.2,9.2,5.4c4,0.3,7.3-1.2,9.1-4.8c1.2-2.4,2.6-4,5-5.1c3.2-1.4,4.7-4.1,4.5-7.6c-0.3-3.9-2.3-6.5-5.8-8
	c-3.4-1.4-6.8-1.4-9.8,1c-1.7,1.4-2.9,3.3-1.8,5.7c1.1,2.2,3,2.9,5.4,2.7c1.2-0.1,2.5-1.3,3.6,0.3c-2.2,3-6.2,3.5-9.2,1.3
	c-4-2.8-3.9-6.9,0.5-13.4c-5-5.6-5.8-10.3-2.4-13.2c2.9-2.5,6.9-2.4,9.4,0.3c-1.2,1.3-2.8,0.6-4.2,0.7c-2,0.2-3.5,1.1-4.2,3
	c-0.6,1.8,0,3.3,1.3,4.6c2.6,2.6,5.8,3.2,9.1,2c3.2-1.2,5.9-3.2,6.3-6.9c0.4-3.7-0.2-7.2-3.8-8.9c-3.2-1.5-5.7-3.4-8-6.2
	c-4.2-5.1-14.8-3.5-16.8,2.5c-1,2.9-2.4,4.3-4.9,5.7c-6.1,3.5-6.7,9.5-2,14.5C380.2,243.9,381,244.7,382.1,245.7z M377.7,246.2
	c-2.1-2.5-3.7-5-4.7-7.6c-7.3,0.1-11-2.2-11.9-7.2c-0.9-5,1.4-8.9,6.2-10.4c3.9-1.3,6.9,0.2,9,4.3c-0.3,0.2-0.5,0.5-0.8,0.6
	c-1.6,0.4-2.3-1.1-3.4-1.7c-2.8-1.4-6.4,0-7.8,3c-1.3,2.7,0.2,6.5,3.1,7.9c3,1.4,5.5,0.6,6.8-2.6c1.3-2.9,3.4-4.9,5.9-6.4
	c0.8-0.5,2.1-1,2.3-1.8c1-3.7,3.6-6.1,6.3-8.4c-1.1-2.4-3.1-3.3-5-3.1c-3.1,0.3-5.1-0.4-7.2-2.8c-2.5-2.9-7.5-2.4-10.2,0.5
	c-0.8,0.8-1.1,2.1-2.4,2.7c-1.3-0.2-2.8-0.6-4.2-0.6c-6.8-0.2-10.9,5.1-8.4,11.4c0.9,2.3,0.5,3.5-0.9,5.3c-2.6,3.2-2.6,6.4-0.4,9.6
	c1.3,1.9,3.3,3,5.4,3.2c3.2,0.3,5,1.3,5.5,4.9c0.4,3,3,4.7,6,5.2C371.8,252.9,374.9,251.4,377.7,246.2z M374.1,255.2
	c-2.1-0.7-4.1-0.1-6.1-0.1c-4.2,0-7.6-2-9.3-5.5c-1.5-3.2-3.4-4.7-6.6-5.7c-3.8-1.1-4.9-0.9-6.9,2.2c-2.4,3.7-2.3,6.4,1.2,9.7
	c2,1.9,2,3.3,0.7,5.5c-3,5.3,0,10.6,6.1,11.5c1.3,0.2,2.7-0.2,3.9,0.5c3.6,8.2,7.1,9.7,15.9,6.2c2-0.8,3.4-0.1,5.2,0.5
	c5.9,2.3,10.9,0.5,13.8-4.7c-1.2-1.8-3.8-2.4-4.6-4.5c-1.5-4.2-5.3-5-8.7-6.5c-1.1,1.3-1.9,2.6-3,3.5c-2.7,2.3-5.7,3.4-9.1,2.2
	c-3.2-1-5-3.3-5.7-6.3c-0.9-4.2,1.7-7.2,6-7c0.5,1.2-0.2,1.9-1.1,2.4c-1.9,1.3-2.7,2.9-1.6,5.1c1.2,2.3,3.2,3.4,5.7,3.2
	c3.7-0.2,6.3-3.4,6-7.1C375.4,258.6,375.2,256.9,374.1,255.2z M316.7,251.7c1.3-0.8,1.3-1.9,1.7-2.8c2.8-5.8,8.8-8.1,14.5-5.8
	c3.6,1.5,5.4,5.8,3.7,9c-1.7,3.5-5.8,4.9-8.7,2.9c-1-0.7-1.8-1.6-0.7-2.8c0.7-0.2,1.3,0,1.9,0.3c2.3,1,4,0.1,4.8-2
	c0.9-2.1-0.5-3.4-2.1-4.5c-3.2-1.9-7-1.2-9.3,1.7c-2.5,3.1-2.4,6,0.7,8.7c1.8,1.6,2.5,2.9,1.8,5.5c-1,3.5,0.9,5.6,4.6,6
	c1.5,0.2,3-0.3,4.4,0.5c3.2,6.8,6.6,8.2,11.4,4.3c-1.5-3.4-3.9-6.6-2-10.7c1.1-2.4,0.5-4.2-0.9-6.3c-2.8-4.6-2-9.2,1.7-13.1
	c0.9-0.9,2.4-1.3,2.8-3.2c-2.2-1.6-0.7-4.8-2.5-6.9c-2.2-0.4-3.9,0.5-5.6,1.6c-2.1,1.4-4.1,2.8-6.3,4c-4,2.2-8.2,3.9-12.8,2.5
	c-5.6-1.7-10.7-1.2-15.8,1.5c-2.4,1.3-5.5,2-7.6,0.8c-4.2-2.4-7.7-0.1-11.8-0.1c0.7,2,2.2,2,3.4,2.3c3.6,0.8,7.2,0.5,10.8,0.1
	c4.8-0.5,8.8,0.6,12.3,3.8C312.6,250.3,314.2,251.5,316.7,251.7z M428.4,230.5c-0.2,1.3-1.3,1.3-2.3,1.6c-1.6,0.5-2.7,1.5-2.5,3.3
	c0.2,2,1.8,2.6,3.6,2.9c2.8,0.4,5.3-0.1,7-2.6c1.8-2.5,2.4-5,1-7.9c-1.8-3.8-4.7-5.9-9.2-5.1c-3.2,0.5-4.7-0.5-6.5-2.9
	c-3.5-4.3-9.1-4.7-13.5-1.4c0.6,2.8,2.5,3.9,5,5c7.2,3.2,9.2,12.7,4,18.7c-0.7,0.8-2.1,1.2-2,2.6c1.5,1.5,3.2,2.9,4.5,4.6
	c1.5,2,3.2,2,5.3,1.3c2.7-0.9,5.2-2.4,7.4-3.9c5.3-3.4,11.1-4.5,17.1-3.2c5.3,1.2,10.1,0.6,15-1.4c2.6-1,5.6-1.8,7.7-0.6
	c4,2.3,7.4,0.1,11.2,0.2c-0.2-1.5-1.1-1.6-1.9-1.8c-3.3-1-6.5-1-9.8-0.4c-6.3,1.2-11.8-0.1-16.7-4.3c-1.6-1.4-3.6-2.4-5.7-3.1
	c-5.5-1.8-6.8-1.3-9.7,3.8c-0.3,0.6-0.7,1.2-1.1,1.7c-2.9,3.7-9.3,4.8-13.1,2.4c-2.9-1.8-3.7-5.5-1.9-8.2
	C423.4,229.1,425.6,228.7,428.4,230.5z M298.7,240.1c2.7,0.1,4.9-1.1,7.1-2c3.3-1.3,6.6-2.4,10.1-1.3c7.1,2.3,13.3,0.5,19-3.9
	c2.7-2,5.5-3.7,8.9-3.8c2.5-0.1,4.2-1.2,4.2-3.9c-0.1-2.9-1.8-4.2-5.2-3.9c-4.6,0.4-8.6,2-12.2,5c-3.9,3.2-8,5.9-13.1,6.4
	c-2.5,0.3-5,0.1-7.4,0.2C305.5,233.3,301,236,298.7,240.1z M467.8,244.3c-3.1-0.2-5.1,0.6-7,1.4c-4.2,1.6-8.4,1.9-12.6,0.9
	c-6.5-1.5-12.4-0.2-17.9,3.4c-1.9,1.3-4,2.4-6.2,3.2c-4.8,1.6-4.8,1.6-4.5,7c3.2,1.3,6.3,1.3,9.4-0.2c2.2-1.1,4.3-2.4,6.3-4.1
	c6-5,12.4-7.8,20.4-6.6C460.3,249.9,464,247.9,467.8,244.3z"/>
<path fill="#fff" id="cloud1bottomleft" d="M491.7,115.5c-1.6,1.7-3.1,0.7-4.5,0.6c-7.6-0.9-14.8,0-21.3,4.4c-3.8,2.6-7.9,3.8-12.7,2.7
	c-3.9-0.9-7.5,0.3-10.8,2.4c-2.4,1.5-4.7,3.2-6.8,4.9c-4.7,3.5-9.6,5.3-15.8,4.1c-4.2-0.9-7.2,2.2-9.1,5.3c-3,4.7-6.7,7.2-12.1,7.2
	c-2.3,0-3.6,1-4.9,2.7c-4.1,5.3-9.5,6.3-15.6,4.6c-2.4-0.7-4.4-0.6-6.6,0.2c-6.5,2.4-11.8,0.5-15.9-5.4c-1.8-2.7-5.2-3.6-8.1-2
	c-2.1,1.1-4.2,2-6.5,1.9c-2.8-0.1-5.5-0.9-6.9-3.3c-1.5-2.4-3.5-3.2-6-3.8c-4.5-1.1-6.3-3.7-6.3-8.2c0-3.5-2.1-6.6-5.4-7.6
	c-3-0.9-5.6-2.2-7.7-4.3c-2.5-2.3-5.4-3.1-8.6-2.8c-1.8,0.2-3.7,0.2-5.5,0.4c-6.8,0.7-12.6-2-17.8-6.1c-0.9-0.7-1.7-1.6-1.5-2.9
	c0.6-1.2,1.6-1,2.6-0.8c8.5,1.8,16.4,0.9,23.2-5.2c2.9-2.6,6.3-3.5,10.1-3.2c6.8,0.4,12.7-1.6,17.8-6.2c4.2-3.8,9.1-5.3,14.5-5.6
	c2.4-0.1,3.9-0.8,5.1-3c2.4-4.2,6.1-6.4,11-6.2c1.9,0.1,3.4-0.5,4.9-1.7c4.5-3.7,9.4-3.6,14.1-0.1c1.5,1.2,2.9,2,4.9,2
	c1.7,0,3.6,0.3,4.7,1.5c3.7,4.3,9.2,2.9,13.7,4.7c1.1,0.4,1.9-0.2,2.8-0.6c6.5-3.3,12.5-2.6,17.6,2.8c1.2,1.2,2.4,1.5,4,1.6
	c5.3,0.2,9.8,1.6,12,7c0.7,1.7,2.1,1.9,3.7,1.9c5.2-0.1,9.8,1.4,13.7,4.8c4.4,3.9,9.3,4.6,14.9,3.5c7.1-1.4,13.4,0.9,19.2,4.8
	C490.3,113.2,491.4,114,491.7,115.5z M382.1,116.7c-0.4,0.9-0.6,1.4-0.9,1.7c-6.2,7.9-4.9,12.7,4.5,16.7c1.8,0.7,2.5,2,3.1,3.6
	c1.7,4.2,5.3,5.2,9.2,5.4c4,0.3,7.3-1.2,9.1-4.8c1.2-2.4,2.6-4,5-5.1c3.2-1.4,4.7-4.1,4.5-7.6c-0.3-3.9-2.3-6.5-5.8-8
	c-3.4-1.4-6.8-1.4-9.8,1c-1.7,1.4-2.9,3.3-1.8,5.7c1.1,2.2,3,2.9,5.4,2.7c1.2-0.1,2.5-1.3,3.6,0.3c-2.2,3-6.2,3.5-9.2,1.3
	c-4-2.8-3.9-6.9,0.5-13.4c-5-5.6-5.8-10.3-2.4-13.2c2.9-2.5,6.9-2.4,9.4,0.3c-1.2,1.3-2.8,0.6-4.2,0.7c-2,0.2-3.5,1.1-4.2,3
	c-0.6,1.8,0,3.3,1.3,4.6c2.6,2.6,5.8,3.2,9.1,2c3.2-1.2,5.9-3.2,6.3-6.9c0.4-3.7-0.2-7.2-3.8-8.9c-3.2-1.5-5.7-3.4-8-6.2
	c-4.2-5.1-14.8-3.5-16.8,2.5c-1,2.9-2.4,4.3-4.9,5.7c-6.1,3.5-6.7,9.5-2,14.5C380.2,114.9,381,115.7,382.1,116.7z M377.7,117.2
	c-2.1-2.5-3.7-5-4.7-7.6c-7.3,0.1-11-2.2-11.9-7.2c-0.9-5,1.4-8.9,6.2-10.4c3.9-1.3,6.9,0.2,9,4.3c-0.3,0.2-0.5,0.5-0.8,0.6
	c-1.6,0.4-2.3-1.1-3.4-1.7c-2.8-1.4-6.4,0-7.8,3c-1.3,2.7,0.2,6.5,3.1,7.9c3,1.4,5.5,0.6,6.8-2.6c1.3-2.9,3.4-4.9,5.9-6.4
	c0.8-0.5,2.1-1,2.3-1.8c1-3.7,3.6-6.1,6.3-8.4c-1.1-2.4-3.1-3.3-5-3.1c-3.1,0.3-5.1-0.4-7.2-2.8c-2.5-2.9-7.5-2.4-10.2,0.5
	c-0.8,0.8-1.1,2.1-2.4,2.7c-1.3-0.2-2.8-0.6-4.2-0.6c-6.8-0.2-10.9,5.1-8.4,11.4c0.9,2.3,0.5,3.5-0.9,5.3c-2.6,3.2-2.6,6.4-0.4,9.6
	c1.3,1.9,3.3,3,5.4,3.2c3.2,0.3,5,1.3,5.5,4.9c0.4,3,3,4.7,6,5.2C371.8,123.9,374.9,122.4,377.7,117.2z M374.1,126.2
	c-2.1-0.7-4.1-0.1-6.1-0.1c-4.2,0-7.6-2-9.3-5.5c-1.5-3.2-3.4-4.7-6.6-5.7c-3.8-1.1-4.9-0.9-6.9,2.2c-2.4,3.7-2.3,6.4,1.2,9.7
	c2,1.9,2,3.3,0.7,5.5c-3,5.3,0,10.6,6.1,11.5c1.3,0.2,2.7-0.2,3.9,0.5c3.6,8.2,7.1,9.7,15.9,6.2c2-0.8,3.4-0.1,5.2,0.5
	c5.9,2.3,10.9,0.5,13.8-4.7c-1.2-1.8-3.8-2.4-4.6-4.5c-1.5-4.2-5.3-5-8.7-6.5c-1.1,1.3-1.9,2.6-3,3.5c-2.7,2.3-5.7,3.4-9.1,2.2
	c-3.2-1-5-3.3-5.7-6.3c-0.9-4.2,1.7-7.2,6-7c0.5,1.2-0.2,1.9-1.1,2.4c-1.9,1.3-2.7,2.9-1.6,5.1c1.2,2.3,3.2,3.4,5.7,3.2
	c3.7-0.2,6.3-3.4,6-7.1C375.4,129.6,375.2,127.9,374.1,126.2z M316.7,122.7c1.3-0.8,1.3-1.9,1.7-2.8c2.8-5.8,8.8-8.1,14.5-5.8
	c3.6,1.5,5.4,5.8,3.7,9c-1.7,3.5-5.8,4.9-8.7,2.9c-1-0.7-1.8-1.6-0.7-2.8c0.7-0.2,1.3,0,1.9,0.3c2.3,1,4,0.1,4.8-2
	c0.9-2.1-0.5-3.4-2.1-4.5c-3.2-1.9-7-1.2-9.3,1.7c-2.5,3.1-2.4,6,0.7,8.7c1.8,1.6,2.5,2.9,1.8,5.5c-1,3.5,0.9,5.6,4.6,6
	c1.5,0.2,3-0.3,4.4,0.5c3.2,6.8,6.6,8.2,11.4,4.3c-1.5-3.4-3.9-6.6-2-10.7c1.1-2.4,0.5-4.2-0.9-6.3c-2.8-4.6-2-9.2,1.7-13.1
	c0.9-0.9,2.4-1.3,2.8-3.2c-2.2-1.6-0.7-4.8-2.5-6.9c-2.2-0.4-3.9,0.5-5.6,1.6c-2.1,1.4-4.1,2.8-6.3,4c-4,2.2-8.2,3.9-12.8,2.5
	c-5.6-1.7-10.7-1.2-15.8,1.5c-2.4,1.3-5.5,2-7.6,0.8c-4.2-2.4-7.7-0.1-11.8-0.1c0.7,2,2.2,2,3.4,2.3c3.6,0.8,7.2,0.5,10.8,0.1
	c4.8-0.5,8.8,0.6,12.3,3.8C312.6,121.3,314.2,122.5,316.7,122.7z M428.4,101.5c-0.2,1.3-1.3,1.3-2.3,1.6c-1.6,0.5-2.7,1.5-2.5,3.3
	c0.2,2,1.8,2.6,3.6,2.9c2.8,0.4,5.3-0.1,7-2.6c1.8-2.5,2.4-5,1-7.9c-1.8-3.8-4.7-5.9-9.2-5.1c-3.2,0.5-4.7-0.5-6.5-2.9
	c-3.5-4.3-9.1-4.7-13.5-1.4c0.6,2.8,2.5,3.9,5,5c7.2,3.2,9.2,12.7,4,18.7c-0.7,0.8-2.1,1.2-2,2.6c1.5,1.5,3.2,2.9,4.5,4.6
	c1.5,2,3.2,2,5.3,1.3c2.7-0.9,5.2-2.4,7.4-3.9c5.3-3.4,11.1-4.5,17.1-3.2c5.3,1.2,10.1,0.6,15-1.4c2.6-1,5.6-1.8,7.7-0.6
	c4,2.3,7.4,0.1,11.2,0.2c-0.2-1.5-1.1-1.6-1.9-1.8c-3.3-1-6.5-1-9.8-0.4c-6.3,1.2-11.8-0.1-16.7-4.3c-1.6-1.4-3.6-2.4-5.7-3.1
	c-5.5-1.8-6.8-1.3-9.7,3.8c-0.3,0.6-0.7,1.2-1.1,1.7c-2.9,3.7-9.3,4.8-13.1,2.4c-2.9-1.8-3.7-5.5-1.9-8.2
	C423.4,100.1,425.6,99.7,428.4,101.5z M298.7,111.1c2.7,0.1,4.9-1.1,7.1-2c3.3-1.3,6.6-2.4,10.1-1.3c7.1,2.3,13.3,0.5,19-3.9
	c2.7-2,5.5-3.7,8.9-3.8c2.5-0.1,4.2-1.2,4.2-3.9c-0.1-2.9-1.8-4.2-5.2-3.9c-4.6,0.4-8.6,2-12.2,5c-3.9,3.2-8,5.9-13.1,6.4
	c-2.5,0.3-5,0.1-7.4,0.2C305.5,104.3,301,107,298.7,111.1z M467.8,115.3c-3.1-0.2-5.1,0.6-7,1.4c-4.2,1.6-8.4,1.9-12.6,0.9
	c-6.5-1.5-12.4-0.2-17.9,3.4c-1.9,1.3-4,2.4-6.2,3.2c-4.8,1.6-4.8,1.6-4.5,7c3.2,1.3,6.3,1.3,9.4-0.2c2.2-1.1,4.3-2.4,6.3-4.1
	c6-5,12.4-7.8,20.4-6.6C460.3,120.9,464,118.9,467.8,115.3z"/>
<path fill="#fff" id="cloud2" d="M352.8,174.7c0.6,1.8-0.7,2.7-1.9,3.6c-5.6,4.4-11.7,6.8-18.8,5.7c-5.2-0.8-9.8-0.6-13.7,3.6
	c-1.6,1.7-4,2.2-6.2,3.1c-4.1,1.6-5.7,4-5.7,8.4c0,3.9-2.4,6.9-6.8,7.9c-2.2,0.5-3.8,1.4-5.2,3.2c-2.8,3.7-7.2,4.5-12.1,2.5
	c-1.9-0.7-3.5-1.7-5.7-1.3c-1.9,0.3-3.2,0.7-4.4,2.6c-3.5,5.7-8.2,7.4-14.9,5.5c-3-0.9-5.7-1-8.6-0.1c-5.5,1.8-10.2-0.3-13.9-4.2
	c-2-2.1-4-3.1-6.7-3.4c-4.6-0.5-7.7-2.9-10.4-6.7s-6.1-6.6-11.5-5.6c-4.8,1-9.1-0.7-13-3.6c-2.3-1.7-4.5-3.4-6.8-5
	c-3.9-2.5-8-3.9-12.7-2.9c-3.4,0.7-6.6,0.2-9.5-1.6c-7.8-5.1-16.3-7.2-25.5-5c-0.8,0.2-1.7,0.1-2.2-0.8c-0.5-1.4,0.6-2.1,1.5-2.7
	c5.8-4.5,12.2-6.6,19.4-5.6c5.9,0.9,11,0.2,15.9-3.7c3.8-3.1,8.1-5.1,13.3-4.4c1.7,0.2,2.8-0.3,3.5-2c2.2-5.4,6.5-7.1,11.9-6.9
	c1.9,0.1,3-0.6,4.3-1.9c4.9-5,10.4-6.1,16.7-3.1c1.8,0.8,3.2,1.4,5.2,0.7c1.4-0.5,3-0.5,4.4-0.5c2.1,0.1,3.9-0.3,5.3-2
	c0.8-1,2.1-2.3,3.2-2.3c5.7,0.1,9.3-4.6,14.4-5.5c3-0.5,6,0.3,8.3,2.4c1.4,1.3,3,1.9,5,1.8c5.3-0.3,8.8,2.4,11.3,6.6
	c0.9,1.5,1.6,2.7,3.7,2.5c5.6-0.4,10.5,1.5,14.7,5c5.9,4.9,12.3,7.4,20,6.7c2.7-0.3,5.4,0.6,7.4,2.3c7.4,6.3,15.8,8.6,25.4,5.8
	C351.6,173.9,352.2,174.1,352.8,174.7z M260.9,191.5c3.6-0.1,5.4,2.2,6.4,5.2c0.8,2.3-0.7,6.2-3.1,7.8c-2.1,1.5-4.5,1.8-7,1.5
	c-3.7-0.5-5.5-3.4-7.7-6c-2.2,1.7-5.6,1.6-6.8,3.9c-1.6,3-4.1,5.1-6.4,7.1c3.1,5.1,7.5,7.2,12.6,5.1c3.5-1.5,6.2-0.8,9.3,0.4
	c5.4,2,9.8-0.1,12-5.4c0.8-1.9,1.8-2.4,3.7-2.6c7.8-1,10.3-5.2,6.9-12.2c-0.8-1.6-0.8-2.8,0.5-3.9c0.6-0.6,1.3-1.1,1.7-1.8
	c1.9-2.6,1.7-6.7-0.3-9.3c-2-2.5-3.3-2.6-7.4-1.4c-2.8,0.8-4.7,1.9-5.4,4.9c-0.4,1.6-1.8,2.8-3.2,3.7
	C264.7,189.6,262.8,190.5,260.9,191.5c-1.5-0.2-3.1-0.6-4.8-0.9c-1-0.2-2.1-0.2-2.6,0.9c-2.2,5.4-2.1,9.7,4.5,11.6
	c2.6,0.7,4.6-0.5,5.8-2.7c1.1-1.9,1.1-3.9-0.9-5.3C261.5,194.1,260.9,193,260.9,191.5z M228.6,181c4.5,6.5,4.6,10.3,0.6,13.3
	c-3,2.2-7.2,1.6-9.2-1.2c1.4-1.7,3.1,0.1,4.7-0.3c1.8-0.5,3.6-1,4.3-3c0.6-1.7,0.3-3.3-1-4.6c-2.5-2.7-5.6-3.5-9-2.5
	c-4,1.1-6.5,3.7-7.3,7.8c-0.6,3.3,0.9,6.6,4.2,8.2c2.6,1.2,4,3.1,5.3,5.4c3.7,6.2,14.2,6.3,17.6,0.2c1.5-2.7,3.1-4.2,5.9-5.4
	c6.2-2.5,7.6-8.8,3.8-14.3c-0.7-1-2.2-1.7-2-3.4c0.2-0.3,0.5-0.8,0.8-1.1c6.8-6.7,6.3-12.3-2.1-16.8c-1.6-0.9-2.5-1.9-2.8-3.7
	c-1.2-7.2-14.1-8.7-17.8-3.2c-1.6,2.5-3.6,4.1-6.3,5.1c-3.7,1.3-5.1,4.6-5.1,8.3c0,4,2.4,6.3,5.9,7.8s7.2,0.9,9.6-1.6
	c1.4-1.4,2.2-3,1.4-5c-0.6-1.7-2.1-2.4-3.9-2.7c-1.5-0.3-3.3,0.7-4.5-1.1c3.3-2.5,7.1-2.3,9.7,0.4
	C234.3,171.2,233.5,175.1,228.6,181z M239.3,151.7c2.7,2.1,5.1,4.2,5.8,7.4c0.3,1.3,1.4,1.8,2.4,2.4c3.1,1.6,5.2,3.9,6.5,7
	c1.2,2.7,3.5,3.4,6.1,2.5c3.4-1.2,5-4.8,3.7-8c-1.3-3.2-5.2-4.5-8.3-2.9c-1.2,0.6-2,2.5-3.8,1c1.8-4.1,4.7-5.7,8.3-4.7
	c4.5,1.2,7.5,5.4,7.1,9.5c-0.5,4.9-4.4,8.4-9.4,8.3c-1.6,0-3.1-0.5-3.6,1.5c-0.6,2.5-2.8,4.1-3.9,6.3c2.3,4.9,4.7,6.3,9.6,5.9
	c5-0.4,6.7-2.3,8.6-9c1-0.8,2.2-0.7,3.3-0.9c7.8-1.5,10.1-7.3,5.3-13.6c-1.1-1.4-1-2.4-0.4-4c2.8-7.2-1.8-13-9.5-11.9
	c-2.2,0.3-3.6,0.2-5.1-1.7c-3.1-3.9-7.9-4.1-11-0.4c-1.8,2.1-3.5,2.7-6,2.5C242.9,148.4,240.8,148.9,239.3,151.7z M302.3,194.7
	c0.3-1.1,1.4-1.4,2.1-2c3.1-2.8,3.5-6.3,1.1-9.1c-2.5-3-6.6-3.6-9.7-1.4c-1.7,1.2-2.5,2.7-1.4,4.7c1,1.8,2.5,2.7,4.5,1.4
	c0.7-0.4,1.4-1,2.5-0.1c0.3,2.1-1,3.1-3,3.4c-2.7,0.4-4.9-0.2-6.4-2.7c-1.6-2.5-1.6-5.2,0.1-7.4c4-5.4,12.7-4.8,16.6,1.1
	c1,1.5,1.1,3.5,2.7,4.8c2.9,0,4.9-1.9,6.8-3.6c2.7-2.3,5.7-3.4,9.1-3.1c2.2,0.2,4.3,0.3,6.4,0.5c3.6,0.4,6.8-0.4,9.9-2.3
	c-3.1-1.4-6.5-2.5-9.2-1.2c-4.2,2-7.7,1.1-11.3-0.6c-4.5-2.1-8.8-2.2-13.5-1.2s-9.2,0.3-13.4-2.2c-2.4-1.4-4.8-3-7.1-4.5
	c-1.7-1.1-3.4-2-5.6-1.1c-0.7,2.6-1.3,5.2-2,8c0.4,0.2,0.9,0.4,1.3,0.8c5.6,5.3,6.2,9.2,2.2,15.8c-0.9,1.5-1.1,2.6-0.3,4.1
	c1.7,3.3,0.8,6.3-0.8,9.4c-0.4,0.8-1.5,1.5-0.9,2.6c4.2,2.2,8.3,2.1,9.4-1.2c1.2-3.8,3.4-4.1,6.6-4.2c3.8-0.2,5.3-2.9,4.2-6.5
	C302.6,196.3,302.1,195.6,302.3,194.7z M221.9,153.6c-5.8-3-10.6-2.2-14.2,2.7c-1.4,2-2.9,2.6-5,2.1c-2.6-0.7-5,0-7.1,1.4
	c-3.1,1.8-4.6,6.4-3.3,9.5c1.5,3.6,4.6,5.3,8.3,4.6c1.8-0.3,3.3-0.9,3.4-3c0.1-1.7-0.8-2.8-2.5-3.2c-0.9-0.2-2.1-0.1-2.4-1.4
	c0.1-1,0.8-1.4,1.7-1.5c2.7-0.2,5.4,1.6,6.2,4.1c0.8,2.7-0.2,5.4-2.7,6.8c-5.2,3.2-11.4,1.1-14.5-4.9c-2-3.9-2.7-4.2-6.9-3.5
	c-3.3,0.5-6,2-8.3,4c-3.9,3.3-8.2,4.7-13.3,4.4c-3.8-0.3-7.6-0.2-11.4-0.1c-1.2,0-2.7-0.1-3.4,2.2c3.3-0.5,6.6,1.9,9.2,0.5
	c4.2-2.2,7.7-1.1,11.4,0.2c4.1,1.4,8,1.9,12.2,0.9c7.4-1.8,14.1,0,20.2,4.1c2,1.3,4,2.3,6.3,2.9c1.5,0.4,3.1,0.6,4.1-0.9
	c1.4-2,3.7-3.3,5.3-5.2c-0.4-0.6-0.6-1.1-0.9-1.4c-7.2-7.6-5.9-15.5,3.7-20.2C220.1,157.6,221.5,156.3,221.9,153.6z M329.7,175.3
	c-4.5-4.8-9.4-7.1-15.7-6.6c-5.2,0.4-9.7-1.3-13.9-4.4c-1.9-1.4-3.8-2.7-5.7-4.1c-3.4-2.4-7.2-2.9-11.3-2.8
	c-2.5,0.1-3.1,1.8-3.3,3.6c-0.3,1.9,0.9,3.5,2.7,3.6c5.6,0.2,9.4,3.6,13.8,6.3c4,2.5,8.2,3.8,12.8,2.3c5.3-1.8,10-0.9,14.9,1.4
	C325.6,175.2,327.3,176.1,329.7,175.3z M159.6,179.8c5.3,4.3,9.7,6.4,15.5,5.2c4.1-0.9,7.8,0.3,11.3,2.4c2.7,1.7,5.2,3.6,7.7,5.4
	c2.8,1.8,5.4,3.8,8.9,3.9c5.4,0.2,6.1-0.5,5.3-5.8c0-0.3-0.4-0.5-0.7-1c-3.7-0.4-6.9-2.3-10.1-4.3c-5.5-3.5-11.3-5-17.9-3.4
	c-4.3,1.1-8.5,0.7-12.6-0.8C164.9,180.7,162.9,179.9,159.6,179.8z"/>
</svg>
