<?xml version="1.0" encoding="utf-8"?>
<!-- Generator: Adobe Illustrator 18.1.1, SVG Export Plug-In . SVG Version: 6.00 Build 0)  -->
<svg version="1.1" id="Layer_1"
	xmlns="http://www.w3.org/2000/svg"
	xmlns:xlink="http://www.w3.org/1999/xlink" x="0px" y="0px" viewBox="0 0 199.5 177" enable-background="new 0 0 199.5 177" xml:space="preserve">
	<g>
		<path d="M65.3,143.8c-4.7-3-8.8-5.6-12.9-8.2c4.4,1.7,8.4,4.3,13.6,2.1c-1.3-0.5-2.6-1.1-4.4-1.8c1.4-0.3,2.3-0.5,4.4-0.9
		c-2.5-0.9-4-1.5-5.7-2.1c0.7-0.4,1.3-0.7,2-1.1c-5-0.9-6.8-8.5-13.4-6.3c0.2,1,0.4,1.9,0.6,3.1c-1.6-0.4-2.7-0.7-4.3-1.1
		c0.3,1.3,0.6,2.2,0.9,3.4c-0.5-0.3-0.9-0.3-1.1-0.6c-8.2-9.9,0.3-20,9-23.9c9.6-4.3,19.9-7.2,30.1-10.3c3.8-1.1,5.5-2.7,4.9-6.8
		c-0.4-2.8,0.5-6.3-0.9-8.3c-1.3-1.7-4.9-1.8-7.5-2.4c-12.9-3-19.9-11.4-24-23.7c-3.8-11.4-5.2-23.1-6-34.9c-0.3-5,0.1-10,0.6-15
		c0.4-4.4,3.7-5.5,7.9-5c6.6,0.7,9.1,4.6,10.3,10.2c0.1,0.2,0.2,0.5,0.3,0.7c3.2,9.1,4.7,10.5,14.5,10.5c5.7,0,11.5-0.5,17-1.9
		c7.4-1.9,14.7-4.6,21.8-7.5c4-1.6,7.4-4.4,11.3-6.2c2-0.9,4.5-0.9,6.8-1.2c2.3-0.3,3.3,0.9,3.7,3.2c0.2,1.1,1.5,2.8,2.5,2.9
		c2.1,0.2,2.6,1.3,3.1,3c2.8,9.6,4.1,19.2,3.2,29.2c-0.7,7.3-4.4,12.3-10.2,16.1c-8.3,5.4-16.7,10.5-25,15.8
		c-2,1.3-3.3,9.3-1.4,10.5c1.3,0.8,3.6,0.7,5.2,0.2c6.3-2,12-1.3,17,3c0.8,0.7,1.9,1.8,1.7,2.6c-1.1,8.4-2.1,17.1-10.4,22
		c-1.5,0.9-3.7,1.3-5.5,1.1c-5-0.7-8.2,2-9.2,6.7c-1.2,5.4-3.4,10.6-5.2,15.8c-0.3,1-1,1.9-1.9,3.5c6.3-0.7,11.9-1.2,17.4-2
		c13.5-2,27-3.5,40.7-2.9c3.6,0.2,6.8,0.8,9.9,3.3c3.6,2.9,8.2,4.6,12.1,7.2c6.4,4.3,8.7,11.2,10.7,18.2c0.3,1-0.4,2.4-0.8,3.5
		c-0.4,1.1-1,2-1.4,3.1c-0.7,1.8-1,4.8-2.2,5.2c-4.8,1.6-7.6,0.4-10.3-3.3c-1.9-2.6-3.7-3.1-7.2-1.8c-5.7,2.1-11.4,6-18.1,3.1
		c-1.2-0.5-2.9,0.2-4.3,0.3c-5.1,0.3-9.7-1.4-14-3.8c-0.9-0.5-2-0.8-3.4-1.4c2.9-3.5,5.5-6.7,8.5-10.3c-1.2-0.4-1.6-0.7-2.1-0.7
		c-17.3-0.4-34.7-1.3-51.4,3.4c-8.1,2.3-16.3,3.7-24.5,5.7c-2.5,0.6-4.8,1.9-7.3,2.8c-8.6,3.1-16.9,0.8-25.4-1.2
		c-3.8-0.9-7.8-0.5-11.7-0.8c-0.8-0.1-1.7-0.1-2.4-0.4c-4.4-2.4-8.7-4.7-13-7.3c-2.5-1.5-4.9-3.4-7.3-5.2c-1.8-1.4-1.4-2.9,0.5-3.7
		c2.5-1,5.1-2,7.8-2.3c11.3-1.1,22.5-0.8,33.5,2.2C51.8,153.9,58.2,149.9,65.3,143.8z M71.6,124.2c-5.6-1.9-10.7-5.7-17.2-3.9
		C56.7,124.5,62.8,126,71.6,124.2z M74,123.5c0,0.4,0.1,0.8,0.1,1.2c3.8-0.3,7.6-0.4,11.4-0.9c0.6-0.1,0.9-2,1.3-3
		c-0.9-0.3-2-1.1-2.7-0.9C80.7,120.9,77.4,122.3,74,123.5z"/>
	</g>
</svg>
